<svg width="32" height="32" viewBox="0 0 32 32" fill="none" xmlns="http://www.w3.org/2000/svg">
<g clip-path="url(#clip0_163072_114535)">
<mask id="path-1-inside-1_163072_114535" fill="white">
<path d="M31.4076 15.9999C31.4076 24.5092 24.5095 31.4073 16.0002 31.4073C7.4909 31.4073 0.592773 24.5092 0.592773 15.9999C0.592773 7.49066 7.4909 0.592529 16.0002 0.592529C24.5095 0.592529 31.4076 7.49066 31.4076 15.9999ZM9.61218 15.9999C9.61218 19.5279 12.4722 22.3879 16.0002 22.3879C19.5282 22.3879 22.3882 19.5279 22.3882 15.9999C22.3882 12.4719 19.5282 9.61193 16.0002 9.61193C12.4722 9.61193 9.61218 12.4719 9.61218 15.9999Z"/>
</mask>
<path d="M31.4076 15.9999C31.4076 24.5092 24.5095 31.4073 16.0002 31.4073C7.4909 31.4073 0.592773 24.5092 0.592773 15.9999C0.592773 7.49066 7.4909 0.592529 16.0002 0.592529C24.5095 0.592529 31.4076 7.49066 31.4076 15.9999ZM9.61218 15.9999C9.61218 19.5279 12.4722 22.3879 16.0002 22.3879C19.5282 22.3879 22.3882 19.5279 22.3882 15.9999C22.3882 12.4719 19.5282 9.61193 16.0002 9.61193C12.4722 9.61193 9.61218 12.4719 9.61218 15.9999Z" fill="white" stroke="#333333" stroke-width="2" mask="url(#path-1-inside-1_163072_114535)"/>
<mask id="path-2-inside-2_163072_114535" fill="white">
<path d="M31.7729 13.314C32.134 15.4341 32.0639 17.6052 31.5669 19.6975L21.2993 17.2587C21.4684 16.5464 21.4923 15.8074 21.3694 15.0856L31.7729 13.314Z"/>
</mask>
<path d="M31.7729 13.314C32.134 15.4341 32.0639 17.6052 31.5669 19.6975L21.2993 17.2587C21.4684 16.5464 21.4923 15.8074 21.3694 15.0856L31.7729 13.314Z" fill="#EF3837" stroke="#333333" stroke-width="1.18519" mask="url(#path-2-inside-2_163072_114535)"/>
<mask id="path-3-inside-3_163072_114535" fill="white">
<path d="M0.227064 13.314C-0.133961 15.4341 -0.0638847 17.6052 0.433104 19.6975L10.7007 17.2587C10.5316 16.5464 10.5077 15.8074 10.6306 15.0856L0.227064 13.314Z"/>
</mask>
<path d="M0.227064 13.314C-0.133961 15.4341 -0.0638847 17.6052 0.433104 19.6975L10.7007 17.2587C10.5316 16.5464 10.5077 15.8074 10.6306 15.0856L0.227064 13.314Z" fill="#EF3837" stroke="#333333" stroke-width="1.18519" mask="url(#path-3-inside-3_163072_114535)"/>
<mask id="path-4-inside-4_163072_114535" fill="white">
<path d="M18.686 0.227064C16.5659 -0.133961 14.3948 -0.0638847 12.3025 0.433104L14.7413 10.7007C15.4536 10.5316 16.1926 10.5077 16.9144 10.6306L18.686 0.227064Z"/>
</mask>
<path d="M18.686 0.227064C16.5659 -0.133961 14.3948 -0.0638847 12.3025 0.433104L14.7413 10.7007C15.4536 10.5316 16.1926 10.5077 16.9144 10.6306L18.686 0.227064Z" fill="#EF3837" stroke="#333333" stroke-width="1.18519" mask="url(#path-4-inside-4_163072_114535)"/>
<mask id="path-5-inside-5_163072_114535" fill="white">
<path d="M18.686 31.7729C16.5659 32.134 14.3948 32.0639 12.3025 31.5669L14.7413 21.2993C15.4536 21.4684 16.1926 21.4923 16.9144 21.3694L18.686 31.7729Z"/>
</mask>
<path d="M18.686 31.7729C16.5659 32.134 14.3948 32.0639 12.3025 31.5669L14.7413 21.2993C15.4536 21.4684 16.1926 21.4923 16.9144 21.3694L18.686 31.7729Z" fill="#EF3837" stroke="#333333" stroke-width="1.18519" mask="url(#path-5-inside-5_163072_114535)"/>
</g>
<defs>
<clipPath id="clip0_163072_114535">
<rect width="32" height="32" fill="white"/>
</clipPath>
</defs>
</svg>
